<?xml version="1.0" encoding="UTF-8"?>
<!DOCTYPE svg PUBLIC "-//W3C//DTD SVG 1.1//EN" "http://www.w3.org/Graphics/SVG/1.1/DTD/svg11.dtd">
<svg xmlns="http://www.w3.org/2000/svg" xml:space="preserve" width="83.3333in" height="55.5556in" version="1.1" style="shape-rendering:geometricPrecision; text-rendering:geometricPrecision; image-rendering:optimizeQuality; fill-rule:evenodd; clip-rule:evenodd"
viewBox="0 0 83333 55556"
 xmlns:xlink="http://www.w3.org/1999/xlink">
 <defs>
  <style type="text/css">
   <![CDATA[
    .fil12 {fill:black;fill-rule:nonzero}
    .fil7 {fill:#020202;fill-rule:nonzero}
    .fil3 {fill:#050505;fill-rule:nonzero}
    .fil2 {fill:#4C4C4B;fill-rule:nonzero}
    .fil0 {fill:#727171;fill-rule:nonzero}
    .fil4 {fill:#A89E9A;fill-rule:nonzero}
    .fil11 {fill:#B75866;fill-rule:nonzero}
    .fil8 {fill:#C6C6C6;fill-rule:nonzero}
    .fil5 {fill:#D8CAC3;fill-rule:nonzero}
    .fil1 {fill:#D8D8D8;fill-rule:nonzero}
    .fil10 {fill:#F77279;fill-rule:nonzero}
    .fil9 {fill:#FFF0EB;fill-rule:nonzero}
    .fil6 {fill:white;fill-rule:nonzero}
   ]]>
  </style>
 </defs>
 <g id="Layer_x0020_1">
  <metadata id="CorelCorpID_0Corel-Layer"/>
  <path class="fil0" d="M44981 12930c7,-394 -162,-1007 -859,-1007 -627,0 -901,577 -950,1007l1809 0zm-1816 444c14,838 549,1183 1169,1183 443,0 711,-77 943,-176l106 443c-218,99 -591,211 -1133,211 -1049,0 -1676,-690 -1676,-1718 0,-1028 606,-1837 1598,-1837 1112,0 1408,978 1408,1605 0,127 -14,225 -21,289l-2393 0z"/>
  <path class="fil0" d="M46347 12620c0,-401 -7,-746 -28,-1063l542 0 21 669 28 0c155,-458 528,-746 943,-746 70,0 120,7 176,21l0 584c-63,-14 -127,-21 -211,-21 -436,0 -746,331 -831,796 -14,84 -28,183 -28,289l0 1816 -612 0 0 -2344z"/>
  <path class="fil0" d="M48677 12620c0,-401 -7,-746 -28,-1063l542 0 21 669 28 0c155,-458 528,-746 943,-746 70,0 120,7 176,21l0 584c-63,-14 -127,-21 -211,-21 -436,0 -746,331 -831,796 -14,84 -28,183 -28,289l0 1816 -613 0 0 -2344z"/>
  <path class="fil0" d="M51289 13268c0,746 429,1309 1035,1309 591,0 1035,-556 1035,-1323 0,-577 -289,-1309 -1021,-1309 -732,0 -1049,676 -1049,1324zm2703 -35c0,1260 -873,1809 -1697,1809 -922,0 -1633,-676 -1633,-1753 0,-1140 746,-1809 1689,-1809 979,0 1640,711 1640,1753z"/>
  <path class="fil0" d="M54773 12620c0,-401 -7,-746 -28,-1063l542 0 21 669 28 0c155,-458 528,-746 943,-746 70,0 120,7 176,21l0 584c-63,-14 -127,-21 -211,-21 -436,0 -746,331 -831,796 -14,84 -28,183 -28,289l0 1816 -613 0 0 -2344z"/>
  <path class="fil0" d="M28855 12963l0 -1979c0,-310 9,-620 27,-930l-27 0c-182,347 -328,602 -492,875l-1450 2015 0 18 1942 0zm0 2243l0 -1614 -2754 0 0 -529 2644 -3784 866 0 0 3684 830 0 0 629 -830 0 0 1614 -757 0z"/>
  <path class="fil0" d="M31773 12270c0,1541 474,2417 1204,2417 821,0 1213,-958 1213,-2471 0,-1459 -374,-2417 -1204,-2417 -702,0 -1213,857 -1213,2471zm3219 -91c0,2015 -748,3128 -2061,3128 -1158,0 -1942,-1085 -1961,-3046 0,-1988 857,-3082 2061,-3082 1249,0 1961,1113 1961,3000z"/>
  <path class="fil0" d="M38211 12963l0 -1979c0,-310 9,-620 27,-930l-27 0c-182,347 -328,602 -493,875l-1450 2015 0 18 1942 0zm0 2243l0 -1614 -2754 0 0 -529 2645 -3784 866 0 0 3684 830 0 0 629 -830 0 0 1614 -757 0z"/>
  <path class="fil0" d="M26301 18390c0,65 10,126 20,181 81,307 347,518 664,518 468,0 739,-382 739,-940 0,-488 -256,-905 -724,-905 -302,0 -583,216 -669,548 -15,55 -30,121 -30,181l0 417zm-437 -649c0,-312 -10,-563 -20,-795l397 0 20 417 10 0c181,-297 468,-473 865,-473 588,0 1031,498 1031,1237 0,875 -533,1307 -1106,1307 -322,0 -603,-141 -749,-382l-10 0 0 1322 -437 0 0 -2635z"/>
  <path class="fil0" d="M30007 18138c-483,-10 -1031,75 -1031,548 0,287 191,422 417,422 317,0 518,-201 588,-407 15,-45 25,-96 25,-141l0 -422zm65 1242l-35 -307 -15 0c-136,191 -397,362 -744,362 -493,0 -744,-347 -744,-699 0,-588 523,-910 1463,-905l0 -50c0,-201 -55,-563 -553,-563 -226,0 -463,70 -634,181l-101 -292c201,-131 493,-216 800,-216 744,0 925,508 925,996l0 910c0,211 10,417 40,583l-402 0z"/>
  <path class="fil0" d="M32787 17907c0,-75 -5,-141 -25,-201 -81,-256 -297,-468 -619,-468 -422,0 -724,357 -724,920 0,478 241,875 719,875 272,0 518,-171 613,-452 25,-75 35,-161 35,-236l0 -438zm458 -960c-10,176 -20,372 -20,669l0 1413c0,558 -111,900 -347,1111 -236,221 -578,292 -885,292 -292,0 -613,-70 -810,-201l111 -337c161,101 412,191 714,191 453,0 784,-236 784,-850l0 -272 -10 0c-136,226 -397,407 -774,407 -604,0 -1036,-513 -1036,-1187 0,-825 538,-1292 1096,-1292 423,0 654,221 759,422l10 0 20 -367 387 0z"/>
  <path class="fil0" d="M35503 17927c5,-282 -116,-719 -613,-719 -447,0 -644,412 -679,719l1292 0zm-1297 317c10,598 392,845 835,845 317,0 508,-55 674,-126l76 317c-156,70 -422,151 -810,151 -749,0 -1197,-493 -1197,-1227 0,-734 432,-1312 1141,-1312 795,0 1006,699 1006,1147 0,90 -10,161 -15,206l-1710 0z"/>
  <path class="fil0" d="M37544 17605c0,-251 -5,-458 -20,-659l392 0 25 402 10 0c121,-231 402,-458 805,-458 337,0 860,201 860,1036l0 1453 -443 0 0 -1403c0,-392 -146,-719 -563,-719 -292,0 -518,206 -593,453 -20,55 -30,131 -30,206l0 1463 -443 0 0 -1775z"/>
  <path class="fil0" d="M40606 18168c0,533 307,935 739,935 422,0 739,-397 739,-945 0,-412 -206,-935 -729,-935 -523,0 -749,483 -749,945zm1931 -25c0,900 -623,1292 -1212,1292 -659,0 -1167,-483 -1167,-1252 0,-815 533,-1292 1207,-1292 699,0 1172,508 1172,1252z"/>
  <path class="fil0" d="M43628 16247l0 699 634 0 0 337 -634 0 0 1312c0,302 86,473 332,473 116,0 201,-15 256,-30l20 332c-85,35 -221,60 -392,60 -206,0 -372,-65 -478,-186 -126,-131 -171,-347 -171,-634l0 -1327 -377 0 0 -337 377 0 0 -583 432 -116z"/>
  <path class="fil0" d="M45871 19380l0 -2097 -342 0 0 -337 342 0 0 -116c0,-342 75,-654 282,-850 166,-161 387,-226 594,-226 156,0 292,35 377,70l-60 342c-65,-30 -156,-55 -282,-55 -377,0 -473,332 -473,704l0 131 588 0 0 337 -588 0 0 2097 -438 0z"/>
  <path class="fil0" d="M47500 18168c0,533 307,935 739,935 422,0 739,-397 739,-945 0,-412 -206,-935 -729,-935 -523,0 -749,483 -749,945zm1931 -25c0,900 -623,1292 -1212,1292 -659,0 -1167,-483 -1167,-1252 0,-815 533,-1292 1207,-1292 699,0 1172,508 1172,1252z"/>
  <path class="fil0" d="M52026 18716c0,251 5,473 20,664l-392 0 -25 -397 -10 0c-116,196 -372,453 -805,453 -382,0 -840,-211 -840,-1066l0 -1423 442 0 0 1348c0,463 141,774 543,774 297,0 503,-206 583,-402 25,-65 40,-146 40,-226l0 -1493 443 0 0 1770z"/>
  <path class="fil0" d="M52760 17605c0,-251 -5,-458 -20,-659l392 0 25 402 10 0c121,-231 402,-458 805,-458 337,0 860,201 860,1036l0 1453 -442 0 0 -1403c0,-392 -146,-719 -563,-719 -292,0 -518,206 -594,453 -20,55 -30,131 -30,206l0 1463 -443 0 0 -1775z"/>
  <path class="fil0" d="M57210 17937c0,-55 -5,-131 -20,-186 -65,-282 -307,-513 -639,-513 -458,0 -729,402 -729,940 0,493 241,900 719,900 297,0 568,-196 649,-528 15,-60 20,-121 20,-191l0 -422zm443 -2127l0 2942c0,216 5,463 20,628l-398 0 -20 -422 -10 0c-136,271 -432,478 -830,478 -588,0 -1041,-498 -1041,-1237 -5,-810 498,-1307 1091,-1307 372,0 624,176 734,372l10 0 0 -1453 443 0z"/>
  <path class="fil1" d="M72622 38722c0,4228 -13859,7655 -30955,7655 -17096,0 -30955,-3427 -30955,-7655 0,-4228 13859,-7655 30955,-7655 17096,0 30955,3427 30955,7655z"/>
  <path class="fil2" d="M16408 35359l6748 8874c69,91 181,143 298,139l43376 -1703c311,-12 454,-381 229,-591l-9281 -8636c-69,-64 -161,-98 -257,-95l-40842 1464c-284,10 -439,325 -271,547z"/>
  <path class="fil3" d="M57535 33417c-3,0 -7,0 -11,0l-40842 1464c-109,4 -202,64 -247,160 -43,91 -32,194 29,275l6748 8874c56,73 146,115 240,111l43375 -1703c141,-5 224,-97 255,-181 39,-104 13,-212 -70,-289l-9281 -8636c-53,-49 -124,-77 -197,-77zm-34095 11025c-133,0 -259,-61 -339,-167l-6748 -8874c-94,-123 -110,-280 -44,-419 67,-142 208,-233 368,-239l40843 -1464c113,-5 225,37 307,114l9281 8636c123,115 164,283 106,439 -60,161 -205,265 -381,272l-43375 1703c-6,0 -11,0 -17,0z"/>
  <path class="fil4" d="M17250 27813c0,0 -314,4710 419,7152l6057 7983 2944 -7459 -9420 -7675z"/>
  <path class="fil3" d="M17795 34901l5892 7765 2816 -7134 -9129 -7438c-52,1031 -187,4747 421,6807zm5969 8328l-6222 -8200 -7 -24c-731,-2438 -437,-7008 -424,-7201l18 -269 9708 7910 -3073 7784z"/>
  <path class="fil5" d="M24118 35779c0,0 -1767,5253 -393,7168l41880 -1767c0,0 1178,-4762 -1080,-6186 -2259,-1424 -34319,-1031 -34319,-1031l-6088 1817z"/>
  <path class="fil3" d="M24228 35892c-196,612 -1591,5147 -431,6913l41696 -1760c69,-314 270,-1319 279,-2431 10,-1211 -211,-2802 -1322,-3503 -629,-396 -4250,-896 -17933,-1028 -8004,-77 -15843,13 -16290,18l-5999 1790zm-572 7198l-44 -61c-593,-826 -708,-2309 -343,-4407 269,-1545 713,-2873 717,-2887l23 -68 69 -21 6107 -1822 19 0c80,-1 8111,-97 16315,-18 4819,46 8755,143 11697,288 3751,184 5839,441 6382,783 544,343 941,895 1180,1643 188,586 279,1294 272,2104 -12,1369 -299,2542 -311,2591l-25 101 -105 4 -41954 1771z"/>
  <path class="fil6" d="M34844 28469c0,0 -4005,-1579 -5859,892 -1854,2471 -11971,-1854 -11971,-1854l6719 9345c0,0 8418,3166 9731,772 1313,-2394 9920,-189 9920,-189l-8541 -8968z"/>
  <path class="fil7" d="M23778 36796c454,168 8387,3056 9626,797 311,-567 1036,-928 2156,-1075 883,-116 2015,-100 3365,47 1857,202 3627,601 4246,749l-8366 -8784c-126,-47 -1072,-392 -2203,-471 -706,-49 -1346,15 -1900,189 -688,216 -1247,606 -1661,1157 -438,583 -1350,846 -2712,781 -1075,-51 -2436,-306 -4044,-755 -2261,-632 -4388,-1481 -5072,-1762l6564 9129zm7324 1795c-820,0 -1830,-129 -3009,-385 -2248,-488 -4362,-1279 -4383,-1287l-20 -7 -12 -17 -6865 -9548 230 98c25,11 2558,1089 5283,1851 2498,699 5671,1270 6605,25 432,-576 1015,-982 1732,-1207 571,-179 1228,-244 1953,-194 1229,86 2245,481 2255,485l14 6 8719 9155 -235 -60c-21,-6 -2175,-553 -4459,-802 -2091,-228 -4723,-246 -5382,957 -312,569 -1030,880 -2133,925 -94,4 -192,6 -292,6z"/>
  <path class="fil6" d="M41914 28659c0,0 1376,-3084 7355,-95 5978,2989 7924,-1186 7924,-1186l8304 8256c0,0 -8066,4935 -12004,807 -3938,-4128 -6406,1329 -6406,1329l-4982 -7212 -285 -2088 95 190z"/>
  <path class="fil7" d="M50602 34827c960,0 1947,525 2940,1566 886,929 2062,1465 3493,1594 1150,104 2468,-54 3917,-468 2200,-629 4041,-1669 4431,-1898l-8173 -8126c-177,319 -887,1436 -2362,1950 -1555,542 -3443,267 -5612,-817 -1348,-674 -2570,-1090 -3630,-1237 -845,-117 -1589,-63 -2213,158 -852,304 -1300,878 -1418,1139l-45 100 238 1744 4905 7100c106,-210 369,-696 766,-1199 489,-619 1288,-1393 2319,-1568 147,-25 294,-37 442,-37zm7137 3330c-245,0 -485,-10 -717,-31 -1466,-132 -2671,-683 -3581,-1637 -1112,-1165 -2208,-1666 -3257,-1487 -1896,323 -3023,2771 -3035,2796l-51 112 -5062 -7327 -344 -2521 223 447c147,-241 557,-779 1426,-1090 645,-231 1411,-287 2279,-168 1076,148 2314,569 3678,1251 2133,1066 3983,1339 5501,811 1666,-580 2323,-1951 2329,-1964l42 -90 70 70 8366 8319 -76 46c-20,12 -2054,1247 -4543,1959 -1173,336 -2263,505 -3250,505z"/>
  <path class="fil8" d="M43021 29293c0,0 1549,-2167 6231,226l5929 7231c0,0 -4474,-5150 -7595,-1301l-4566 -6156z"/>
  <polygon class="fil9" points="37122,28280 37169,24104 39873,27663 41487,26334 42958,30794 44571,29608 45235,33499 47560,32170 47086,37769 "/>
  <path class="fil3" d="M37192 28250l9837 9369 451 -5322 -2296 1312 -662 -3878 -1600 1176 -1469 -4455 -1591 1310 -2626 -3455 -45 3942zm9951 9670l-10091 -9611 50 -4409 2784 3663 1636 -1347 1473 4466 1627 -1196 666 3904 2354 -1345 -498 5876z"/>
  <path class="fil3" d="M44405 39320l-1979 -448c0,0 1360,460 1979,448z"/>
  <path class="fil3" d="M43999 40251l-1962 -521c0,0 1268,467 1962,521z"/>
  <path class="fil3" d="M43933 41005l-2029 -41c0,0 1374,159 2029,41z"/>
  <polygon class="fil10" points="37122,28280 34844,28469 43385,37437 44002,44412 45615,41898 47323,44127 47086,37769 "/>
  <path class="fil3" d="M34995 28527l8457 8880 2 24 599 6772 1557 -2427 1636 2135 -228 -6111 -9921 -9449 -2101 175zm8955 16095l-633 -7154 -8624 -9056 2454 -204 23 22 9985 9509 1 28 245 6577 -1781 -2325 -1670 2603z"/>
  <polygon class="fil11" points="43385,37437 47086,37769 47323,44127 45615,41898 44002,44412 "/>
  <path class="fil3" d="M43461 37514l592 6689 1557 -2427 1636 2135 -227 -6078 -3557 -319zm489 7107l-642 -7261 3845 345 248 6638 -1781 -2325 -1670 2603z"/>
  <path class="fil12" d="M58778 38707c0,0 2133,0 6993,-1803 0,0 -4046,1825 -6993,1803z"/>
  <path class="fil12" d="M65881 38201c0,0 -3123,770 -4530,902 0,0 2375,-110 4530,-902z"/>
  <path class="fil12" d="M23494 38152c0,0 5139,1893 8554,1319 0,0 -3178,879 -8554,-1319z"/>
  <path class="fil12" d="M23325 39436c0,0 6255,2130 11192,1048 0,0 -5072,1217 -11192,-1048z"/>
  <path class="fil12" d="M23441 38417l-3307 -4276c0,0 1147,1816 3307,4276z"/>
  <path class="fil12" d="M23192 39888l-2700 -3185c0,0 1178,1641 2700,3185z"/>
  <path class="fil8" d="M19869 29495c0,0 4634,1520 6859,1409l2262 2262c0,0 -5212,-93 -6595,-1205l-2526 -2465z"/>
  <path class="fil8" d="M22917 32721c0,0 3188,1223 6229,704l445 408c0,0 -3077,408 -6154,-482l-519 -630z"/>
  <path class="fil8" d="M23687 33722c0,0 3188,1223 6228,704l445 408c0,0 -3077,408 -6154,-482l-519 -630z"/>
  <path class="fil8" d="M24317 34760c0,0 3188,1223 6229,705l445 408c0,0 -3077,408 -6154,-482l-519 -630z"/>
  <path class="fil8" d="M25122 35838c0,0 3188,1223 6229,704l445 408c0,0 -3077,408 -6154,-482l-519 -630z"/>
  <path class="fil8" d="M29102 30423c0,0 1404,-2515 5628,-1297l384 430c0,0 -4450,-1051 -5557,1338l-456 -471z"/>
  <path class="fil8" d="M30000 31506c0,0 1404,-2515 5628,-1297l384 430c0,0 -4450,-1051 -5557,1338l-456 -471z"/>
  <path class="fil8" d="M30835 32713c0,0 1485,-2515 5953,-1297l406 430c0,0 -4706,-1051 -5877,1338l-482 -471z"/>
  <path class="fil8" d="M31709 33791c0,0 1485,-2515 5953,-1297l406 430c0,0 -4706,-1051 -5877,1338l-482 -471z"/>
  <path class="fil8" d="M32605 34901c0,0 1485,-2515 5953,-1297l406 430c0,0 -4706,-1051 -5877,1338l-482 -471z"/>
  <path class="fil8" d="M33453 36043c0,0 1529,-2515 6129,-1297l418 430c0,0 -4846,-1051 -6051,1338l-496 -471z"/>
  <path class="fil8" d="M53130 30430c0,0 1690,608 4291,-1284l473 473c0,0 -2906,1892 -4291,1386l-473 -574z"/>
  <path class="fil8" d="M53985 31405c0,0 1690,608 4292,-1284l473 473c0,0 -2906,1892 -4292,1386l-473 -574z"/>
  <path class="fil8" d="M54772 32363c0,0 1690,608 4292,-1284l473 473c0,0 -2906,1892 -4292,1385l-473 -574z"/>
  <path class="fil8" d="M55592 33286c0,0 1689,608 4292,-1284l473 473c0,0 -2906,1892 -4292,1385l-473 -574z"/>
  <path class="fil8" d="M56419 34341c0,0 1690,608 4292,-1284l473 473c0,0 -2906,1892 -4291,1385l-473 -574z"/>
  <path class="fil3" d="M47156 39523l1202 -1636c0,0 -651,1082 -1202,1636z"/>
  <path class="fil3" d="M47207 39961l1896 -724c0,0 -1144,613 -1896,724z"/>
  <path class="fil3" d="M47239 40614l2029 -41c0,0 -1418,150 -2029,41z"/>
 </g>
</svg>
